<svg width="200" height="31" viewBox="0 0 200 31" fill="none" xmlns="http://www.w3.org/2000/svg">
<path d="M193.765 9.21184H193.669C191.065 9.21184 189.176 10.7648 188.233 12.9813H187.715V9.47302H179.316V10.253C180.744 10.253 181.905 11.5695 181.905 12.9813V26.8874C181.905 28.2992 180.744 29.6157 179.316 29.6157C177.887 29.6157 176.726 28.2992 176.726 26.8874V15.4696C176.726 12.0142 173.987 9.21184 170.487 9.21184H170.391C167.787 9.21184 165.902 10.7648 164.959 12.9813H164.437V9.47302H156.037V10.253C157.466 10.253 158.627 11.5695 158.627 12.9813V26.8874C158.627 28.2992 157.466 29.6157 156.037 29.6157C154.609 29.6157 153.448 28.2992 153.448 26.8874V9.47302H147.638V11.1989H147.252C144.341 7.74359 135.87 8.76713 133.149 14.326C132.32 16.0202 131.713 17.8202 131.713 19.9132C131.713 22.0062 132.32 23.8062 133.149 25.5003C135.87 31.0592 144.298 32.1534 147.252 28.6274H147.638V30.3992H156.037H158.627H167.027V29.6192C165.598 29.6192 164.437 28.3027 164.437 26.8909V15.5755C164.437 13.7049 165.784 12.1872 167.677 12.1872C169.569 12.1872 170.916 13.7049 170.916 15.5755V26.8874C170.916 28.2992 169.755 29.6157 168.327 29.6157V30.3957H179.316H181.905H190.305V29.6157C188.876 29.6157 187.715 28.2992 187.715 26.8874V15.5755C187.715 13.7049 189.062 12.1872 190.955 12.1872C192.848 12.1872 194.194 13.7049 194.194 15.5755V26.8874C194.194 28.2992 193.033 29.6157 191.605 29.6157V30.3957H200.005V26.8874V15.4696C200.005 12.0142 197.265 9.21184 193.765 9.21184ZM147.038 24.9427C146.634 26.3192 146.08 27.3498 145.377 28.038C144.673 28.7263 143.859 29.0686 142.934 29.0686C141.916 29.0686 141.056 28.7192 140.356 28.0168C139.652 27.3145 139.123 26.2839 138.763 24.9215C138.402 23.5626 138.223 21.8932 138.223 19.9132C138.223 17.9332 138.402 16.2672 138.763 14.9049C139.12 13.5425 139.652 12.5119 140.356 11.8095C141.059 11.1072 141.916 10.7577 142.934 10.7577C143.859 10.7577 144.677 11.1001 145.377 11.7884C146.08 12.4766 146.634 13.5072 147.038 14.8837C147.441 16.2602 147.645 17.9367 147.645 19.9132C147.645 21.8897 147.441 23.5662 147.038 24.9427Z" fill="#4D0D28"/>
<path d="M129.469 26.8875V15.4697C129.469 12.0143 126.541 9.21191 123.041 9.21191H122.944C120.341 9.21191 118.184 10.7649 117.216 12.9814H116.691C115.769 10.7649 113.641 9.21191 111.041 9.21191H110.944C108.341 9.21191 106.37 10.7649 105.42 12.9814H104.898V9.47309H96.4983V10.2531C97.9268 10.2531 99.0875 11.5696 99.0875 12.9814V26.8875C99.0875 28.2993 97.9268 29.6158 96.4983 29.6158V30.3958H107.487V29.6158C106.059 29.6158 104.898 28.2993 104.898 26.8875V15.5755C104.898 13.7049 106.245 12.1873 108.137 12.1873C110.03 12.1873 111.377 13.7049 111.377 15.5755V26.8875C111.377 28.2993 110.216 29.6158 108.787 29.6158V30.3958H119.776V29.6158C118.348 29.6158 117.187 28.2993 117.187 26.8875V15.5755C117.187 13.7049 118.534 12.1873 120.426 12.1873C122.319 12.1873 123.666 13.7049 123.666 15.5755V26.8875C123.666 28.2993 122.505 29.6158 121.076 29.6158V30.3958H132.066V29.6158C130.637 29.6158 129.476 28.2993 129.476 26.8875H129.469Z" fill="#4D0D28"/>
<path d="M40.6775 10.5425C38.9954 9.6531 37.1169 9.21191 35.0491 9.21191C32.9813 9.21191 30.9813 9.65663 29.3099 10.5425C27.6421 11.4319 26.3349 12.692 25.3885 14.3261C24.4421 15.9603 23.9707 17.8238 23.9707 19.9133C23.9707 22.0027 24.4421 23.8663 25.3885 25.5004C26.3349 27.1345 27.6421 28.4016 29.3099 29.3052C30.9777 30.2087 32.892 30.6605 35.0491 30.6605C37.2062 30.6605 38.9919 30.2087 40.6775 29.3052C42.3597 28.4016 43.6668 27.1345 44.5989 25.5004C45.531 23.8663 45.9953 22.0062 45.9953 19.9133C45.9953 17.8203 45.531 15.9603 44.5989 14.3261C43.6668 12.692 42.3632 11.4319 40.6775 10.5425ZM39.1061 24.9392C38.7062 26.3157 38.1597 27.3463 37.4669 28.0346C36.774 28.7228 35.9669 29.0652 35.0526 29.0652C34.0491 29.0652 33.1991 28.7157 32.5063 28.0134C31.8134 27.311 31.2884 26.2804 30.9349 24.918C30.5813 23.5592 30.4027 21.8898 30.4027 19.9097C30.4027 17.9297 30.5813 16.3061 30.9349 14.9473C31.2884 13.5884 31.8134 12.5543 32.5063 11.852C33.1991 11.1496 34.0491 10.8002 35.0526 10.8002C35.9669 10.8002 36.774 11.1531 37.4669 11.852C38.1597 12.5543 38.7062 13.5849 39.1061 14.9473C39.5061 16.3097 39.7026 17.9615 39.7026 19.9097C39.7026 21.858 39.5026 23.5627 39.1061 24.9392Z" fill="#4D0D28"/>
<path d="M78.9584 23.778C78.162 24.6957 77.2763 25.3557 76.3013 25.7545C75.3263 26.1569 74.2763 26.3545 73.1549 26.3545C71.7085 26.3545 70.4371 26.0192 69.3443 25.3451C68.2514 24.671 67.3943 23.6827 66.7729 22.3803C66.1515 21.078 65.8408 19.5074 65.8408 17.6756C65.8408 17.6191 65.8408 17.5626 65.8408 17.5026H78.7762V16.472C78.7762 14.9544 78.4227 13.6414 77.712 12.5402C77.0013 11.439 76.0441 10.6061 74.8334 10.0484C73.6228 9.49074 72.2192 9.21191 70.6228 9.21191C68.7907 9.21191 67.1014 9.69192 65.5515 10.6519C64.0015 11.612 62.7658 12.9143 61.8515 14.5626C60.9373 16.2108 60.4766 18.0356 60.4766 20.0438C60.4766 22.1933 60.9194 24.0639 61.8051 25.6522C62.6908 27.244 63.8944 28.4757 65.4158 29.3475C66.9372 30.2228 68.6121 30.6569 70.4442 30.6569C72.5692 30.6569 74.3656 30.1275 75.8263 29.0652C77.287 28.0063 78.5655 26.4428 79.6584 24.3816L78.9512 23.7815L78.9584 23.778ZM66.3765 14.0226C66.73 12.9637 67.2264 12.1378 67.8621 11.5519C68.4979 10.9661 69.2264 10.6696 70.055 10.6696C70.8835 10.6696 71.5014 10.9272 72.0049 11.4425C72.5085 11.9578 72.8763 12.6461 73.1121 13.5037C73.3263 14.2873 73.4192 15.1908 73.387 16.2108H65.9158C65.9979 15.4167 66.1515 14.6861 66.3729 14.019L66.3765 14.0226Z" fill="#4D0D28"/>
<path d="M15.6961 13.9661C17.5568 13.3237 18.9961 12.4414 20.0175 11.3155C21.0353 10.1931 21.546 8.86954 21.546 7.35188C21.546 5.83421 21.0746 4.5283 20.1282 3.43417C19.1818 2.34004 17.8318 1.49296 16.0747 0.892955C14.314 0.300005 12.2998 0 10.0248 0H0V30.3958H10.607V29.6157C8.21057 29.6157 6.29632 29.2522 6.29632 26.8839V15.0532H6.82845L17.9247 30.3958H26.0281L13.789 14.5167C14.4569 14.3579 15.0962 14.1743 15.6961 13.9661ZM11.6426 12.9602C10.6534 13.4579 9.4784 13.7049 8.12128 13.7049H6.29989V1.48943H8.25342C10.1427 1.48943 11.6855 2.00121 12.8819 3.02122C14.0783 4.04477 14.6747 5.54479 14.6747 7.53188C14.6747 8.78837 14.4176 9.8825 13.8998 10.8143C13.3819 11.7496 12.6283 12.4625 11.6391 12.9602H11.6426Z" fill="#4D0D28"/>
<path d="M58.8126 27.7451C58.2662 27.9075 57.684 27.9851 57.0626 27.9851C56.1769 27.9851 55.4805 27.7592 54.9805 27.3075C54.4769 26.8557 54.2269 26.1463 54.2269 25.1827V10.9519H60.6518V9.42013H54.2269V3.42004H53.0055C51.7306 5.69655 47.9913 8.8166 44.5664 9.9425V10.9519H48.4663V24.6992C48.4663 26.0722 48.7306 27.2016 49.2628 28.091C49.7949 28.9804 50.5092 29.6299 51.4127 30.0393C52.3127 30.4487 53.3234 30.6534 54.4484 30.6534C55.6591 30.6534 56.8019 30.4063 57.8805 29.9087C58.959 29.411 60.0126 28.7122 61.0483 27.8086L60.4733 27.0216C59.9126 27.3428 59.359 27.5828 58.8126 27.7451Z" fill="#4D0D28"/>
<path d="M88.2477 15.1908H87.7084V9.44836H79.3086V10.2284C80.7371 10.2284 81.8978 11.5449 81.8978 12.9567V26.8627C81.8978 28.2745 80.7371 29.591 79.3086 29.591V30.371H90.2977V29.591C88.8691 29.591 87.7084 28.2745 87.7084 26.8627V18.5226C88.4656 14.1037 92.9833 14.132 95.444 14.979V9.46954C90.6227 8.33658 88.9656 12.0143 88.2441 15.1873L88.2477 15.1908Z" fill="#4D0D28"/>
</svg>
